<?xml version="1.0" encoding="UTF-8" standalone="no"?>
<!DOCTYPE svg PUBLIC "-//W3C//DTD SVG 1.1//EN"
 "http://www.w3.org/Graphics/SVG/1.1/DTD/svg11.dtd">
<!-- Generated by graphviz version 2.38.0 (20140413.2041)
 -->
<!-- Title: %3 Pages: 1 -->
<svg width="704pt" height="404pt"
 viewBox="0.00 0.00 704.23 404.00" xmlns="http://www.w3.org/2000/svg" xmlns:xlink="http://www.w3.org/1999/xlink">
<g id="graph0" class="graph" transform="scale(1 1) rotate(0) translate(4 400)">
<title>%3</title>
<polygon fill="white" stroke="none" points="-4,4 -4,-400 700.232,-400 700.232,4 -4,4"/>
<!-- [root] google_compute_instance.server2 -->
<g id="node1" class="node"><title>[root] google_compute_instance.server2</title>
<polygon fill="none" stroke="black" points="483.732,-252 276.732,-252 276.732,-216 483.732,-216 483.732,-252"/>
<text text-anchor="middle" x="380.232" y="-230.3" font-family="Times New Roman,serif" font-size="14.00">google_compute_instance.server2</text>
</g>
<!-- [root] google_compute_subnetwork.my&#45;subnet -->
<g id="node3" class="node"><title>[root] google_compute_subnetwork.my&#45;subnet</title>
<polygon fill="none" stroke="black" points="502.732,-180 257.732,-180 257.732,-144 502.732,-144 502.732,-180"/>
<text text-anchor="middle" x="380.232" y="-158.3" font-family="Times New Roman,serif" font-size="14.00">google_compute_subnetwork.my&#45;subnet</text>
</g>
<!-- [root] google_compute_instance.server2&#45;&gt;[root] google_compute_subnetwork.my&#45;subnet -->
<g id="edge1" class="edge"><title>[root] google_compute_instance.server2&#45;&gt;[root] google_compute_subnetwork.my&#45;subnet</title>
<path fill="none" stroke="black" d="M380.232,-215.697C380.232,-207.983 380.232,-198.712 380.232,-190.112"/>
<polygon fill="black" stroke="black" points="383.733,-190.104 380.232,-180.104 376.733,-190.104 383.733,-190.104"/>
</g>
<!-- [root] google_compute_network.my_network -->
<g id="node2" class="node"><title>[root] google_compute_network.my_network</title>
<polygon fill="none" stroke="black" points="498.232,-108 262.232,-108 262.232,-72 498.232,-72 498.232,-108"/>
<text text-anchor="middle" x="380.232" y="-86.3" font-family="Times New Roman,serif" font-size="14.00">google_compute_network.my_network</text>
</g>
<!-- [root] provider.google -->
<g id="node6" class="node"><title>[root] provider.google</title>
<polygon fill="none" stroke="black" points="472.232,-36 375.709,-18 472.232,-3.55271e-015 568.755,-18 472.232,-36"/>
<text text-anchor="middle" x="472.232" y="-14.3" font-family="Times New Roman,serif" font-size="14.00">provider.google</text>
</g>
<!-- [root] google_compute_network.my_network&#45;&gt;[root] provider.google -->
<g id="edge2" class="edge"><title>[root] google_compute_network.my_network&#45;&gt;[root] provider.google</title>
<path fill="none" stroke="black" d="M402.974,-71.6966C416.017,-61.7724 432.446,-49.2722 446.029,-38.9373"/>
<polygon fill="black" stroke="black" points="448.224,-41.6652 454.063,-32.8245 443.985,-36.0944 448.224,-41.6652"/>
</g>
<!-- [root] google_compute_subnetwork.my&#45;subnet&#45;&gt;[root] google_compute_network.my_network -->
<g id="edge3" class="edge"><title>[root] google_compute_subnetwork.my&#45;subnet&#45;&gt;[root] google_compute_network.my_network</title>
<path fill="none" stroke="black" d="M380.232,-143.697C380.232,-135.983 380.232,-126.712 380.232,-118.112"/>
<polygon fill="black" stroke="black" points="383.733,-118.104 380.232,-108.104 376.733,-118.104 383.733,-118.104"/>
</g>
<!-- [root] google_compute_subnetwork.my&#45;subnet2 -->
<g id="node4" class="node"><title>[root] google_compute_subnetwork.my&#45;subnet2</title>
<polygon fill="none" stroke="black" points="258.232,-252 6.23241,-252 6.23241,-216 258.232,-216 258.232,-252"/>
<text text-anchor="middle" x="132.232" y="-230.3" font-family="Times New Roman,serif" font-size="14.00">google_compute_subnetwork.my&#45;subnet2</text>
</g>
<!-- [root] google_compute_subnetwork.my&#45;subnet2&#45;&gt;[root] google_compute_network.my_network -->
<g id="edge4" class="edge"><title>[root] google_compute_subnetwork.my&#45;subnet2&#45;&gt;[root] google_compute_network.my_network</title>
<path fill="none" stroke="black" d="M151.192,-215.821C173.262,-196.472 211.406,-164.994 248.232,-144 270.383,-131.372 296.138,-120.309 318.987,-111.603"/>
<polygon fill="black" stroke="black" points="320.44,-114.796 328.583,-108.018 317.99,-108.239 320.44,-114.796"/>
</g>
<!-- [root] google_container_cluster.kubey -->
<g id="node5" class="node"><title>[root] google_container_cluster.kubey</title>
<polygon fill="none" stroke="black" points="696.232,-252 502.232,-252 502.232,-216 696.232,-216 696.232,-252"/>
<text text-anchor="middle" x="599.232" y="-230.3" font-family="Times New Roman,serif" font-size="14.00">google_container_cluster.kubey</text>
</g>
<!-- [root] google_container_cluster.kubey&#45;&gt;[root] provider.google -->
<g id="edge5" class="edge"><title>[root] google_container_cluster.kubey&#45;&gt;[root] provider.google</title>
<path fill="none" stroke="black" d="M589.919,-215.868C573.693,-186.216 538.939,-123.553 507.232,-72 501.254,-62.2788 494.388,-51.7549 488.331,-42.6664"/>
<polygon fill="black" stroke="black" points="491.085,-40.4901 482.605,-34.1392 485.274,-44.3924 491.085,-40.4901"/>
</g>
<!-- [root] meta.count&#45;boundary (count boundary fixup) -->
<g id="node7" class="node"><title>[root] meta.count&#45;boundary (count boundary fixup)</title>
<ellipse fill="none" stroke="black" cx="198.232" cy="-306" rx="198.465" ry="18"/>
<text text-anchor="middle" x="198.232" y="-302.3" font-family="Times New Roman,serif" font-size="14.00">[root] meta.count&#45;boundary (count boundary fixup)</text>
</g>
<!-- [root] meta.count&#45;boundary (count boundary fixup)&#45;&gt;[root] google_compute_instance.server2 -->
<g id="edge6" class="edge"><title>[root] meta.count&#45;boundary (count boundary fixup)&#45;&gt;[root] google_compute_instance.server2</title>
<path fill="none" stroke="black" d="M241.364,-288.411C266.846,-278.61 299.329,-266.117 326.471,-255.677"/>
<polygon fill="black" stroke="black" points="327.751,-258.935 335.828,-252.078 325.239,-252.402 327.751,-258.935"/>
</g>
<!-- [root] meta.count&#45;boundary (count boundary fixup)&#45;&gt;[root] google_compute_subnetwork.my&#45;subnet2 -->
<g id="edge7" class="edge"><title>[root] meta.count&#45;boundary (count boundary fixup)&#45;&gt;[root] google_compute_subnetwork.my&#45;subnet2</title>
<path fill="none" stroke="black" d="M182.256,-288.055C174.268,-279.583 164.448,-269.168 155.63,-259.815"/>
<polygon fill="black" stroke="black" points="157.927,-257.15 148.521,-252.275 152.834,-261.952 157.927,-257.15"/>
</g>
<!-- [root] meta.count&#45;boundary (count boundary fixup)&#45;&gt;[root] google_container_cluster.kubey -->
<g id="edge8" class="edge"><title>[root] meta.count&#45;boundary (count boundary fixup)&#45;&gt;[root] google_container_cluster.kubey</title>
<path fill="none" stroke="black" d="M285.243,-289.811C345.919,-279.219 427.269,-265.019 491.961,-253.726"/>
<polygon fill="black" stroke="black" points="492.946,-257.107 502.195,-251.939 491.743,-250.211 492.946,-257.107"/>
</g>
<!-- [root] provider.google (close) -->
<g id="node8" class="node"><title>[root] provider.google (close)</title>
<ellipse fill="none" stroke="black" cx="533.232" cy="-306" rx="118.879" ry="18"/>
<text text-anchor="middle" x="533.232" y="-302.3" font-family="Times New Roman,serif" font-size="14.00">[root] provider.google (close)</text>
</g>
<!-- [root] provider.google (close)&#45;&gt;[root] google_compute_instance.server2 -->
<g id="edge9" class="edge"><title>[root] provider.google (close)&#45;&gt;[root] google_compute_instance.server2</title>
<path fill="none" stroke="black" d="M497.747,-288.765C476.565,-279.074 449.428,-266.658 426.569,-256.2"/>
<polygon fill="black" stroke="black" points="427.941,-252.979 417.391,-252.001 425.029,-259.344 427.941,-252.979"/>
</g>
<!-- [root] provider.google (close)&#45;&gt;[root] google_compute_subnetwork.my&#45;subnet2 -->
<g id="edge10" class="edge"><title>[root] provider.google (close)&#45;&gt;[root] google_compute_subnetwork.my&#45;subnet2</title>
<path fill="none" stroke="black" d="M458.278,-291.916C396.808,-281.185 308.995,-265.856 239.985,-253.81"/>
<polygon fill="black" stroke="black" points="240.398,-250.329 229.945,-252.057 239.194,-257.225 240.398,-250.329"/>
</g>
<!-- [root] provider.google (close)&#45;&gt;[root] google_container_cluster.kubey -->
<g id="edge11" class="edge"><title>[root] provider.google (close)&#45;&gt;[root] google_container_cluster.kubey</title>
<path fill="none" stroke="black" d="M549.209,-288.055C557.197,-279.583 567.017,-269.168 575.835,-259.815"/>
<polygon fill="black" stroke="black" points="578.631,-261.952 582.944,-252.275 573.538,-257.15 578.631,-261.952"/>
</g>
<!-- [root] root -->
<g id="node9" class="node"><title>[root] root</title>
<ellipse fill="none" stroke="black" cx="365.232" cy="-378" rx="49.2915" ry="18"/>
<text text-anchor="middle" x="365.232" y="-374.3" font-family="Times New Roman,serif" font-size="14.00">[root] root</text>
</g>
<!-- [root] root&#45;&gt;[root] meta.count&#45;boundary (count boundary fixup) -->
<g id="edge12" class="edge"><title>[root] root&#45;&gt;[root] meta.count&#45;boundary (count boundary fixup)</title>
<path fill="none" stroke="black" d="M333.821,-363.834C309.564,-353.666 275.542,-339.405 247.648,-327.713"/>
<polygon fill="black" stroke="black" points="248.638,-324.333 238.062,-323.695 245.932,-330.789 248.638,-324.333"/>
</g>
<!-- [root] root&#45;&gt;[root] provider.google (close) -->
<g id="edge13" class="edge"><title>[root] root&#45;&gt;[root] provider.google (close)</title>
<path fill="none" stroke="black" d="M396.438,-363.998C421.332,-353.625 456.63,-338.918 485.134,-327.041"/>
<polygon fill="black" stroke="black" points="486.631,-330.209 494.515,-323.132 483.938,-323.748 486.631,-330.209"/>
</g>
</g>
</svg>
